<svg width="1680" height="302" viewBox="0 0 1680 302" fill="none" xmlns="http://www.w3.org/2000/svg">
<g clip-path="url(#clip0_5157_54)">
<path d="M1003 95C1014.88 95 1026.76 95 1039 95C1043.5 105.123 1043.5 105.123 1044.72 108.851C1045.14 110.109 1045.14 110.109 1045.56 111.393C1045.99 112.711 1045.99 112.711 1046.43 114.055C1046.89 115.466 1046.89 115.466 1047.37 116.906C1048.35 119.894 1049.33 122.884 1050.31 125.875C1054.95 140.021 1059.75 154.07 1065 168C1067.84 159.516 1070.67 151.032 1073.5 142.547C1074.82 138.606 1076.13 134.666 1077.45 130.726C1078.72 126.921 1079.99 123.115 1081.26 119.308C1081.75 117.86 1082.23 116.411 1082.71 114.963C1083.4 112.927 1084.07 110.89 1084.75 108.853C1085.14 107.696 1085.53 106.539 1085.92 105.347C1087.03 101.922 1088.01 98.4598 1089 95C1100.88 95 1112.76 95 1125 95C1125 131.96 1125 168.92 1125 207C1117.08 207 1109.16 207 1101 207C1100.5 171.36 1100.5 171.36 1100 135C1094.02 152.335 1094.02 152.335 1088.03 169.67C1083.73 182.129 1079.41 194.578 1075 207C1068.07 207 1061.14 207 1054 207C1045.67 183.667 1037.33 160.333 1029 137C1028.67 160.1 1028.34 183.2 1028 207C1019.75 207 1011.5 207 1003 207C1003 170.04 1003 133.08 1003 95Z" fill="#C62526"/>
<path d="M888 95C896.58 95 905.16 95 914 95C914.33 119.09 914.66 143.18 915 168C919.62 159.42 924.24 150.84 929 142C935.062 130.875 935.062 130.875 937.961 125.574C940.186 121.5 942.397 117.418 944.602 113.332C945.2 112.224 945.798 111.116 946.414 109.975C947.578 107.818 948.74 105.66 949.901 103.501C950.422 102.535 950.943 101.569 951.48 100.574C952.175 99.2839 952.175 99.2839 952.884 97.9675C954 96 954 96 955 95C964.57 95 974.14 95 984 95C984 131.96 984 168.92 984 207C975.42 207 966.84 207 958 207C957.67 182.91 957.34 158.82 957 134C953.04 141.59 949.08 149.18 945 157C939.062 167.938 939.062 167.938 936.102 173.332C933.868 177.402 931.658 181.485 929.461 185.574C928.873 186.667 928.285 187.759 927.679 188.885C926.542 191 925.408 193.116 924.276 195.234C923.761 196.191 923.246 197.147 922.715 198.133C922.262 198.977 921.81 199.822 921.344 200.692C920 203 920 203 917 207C907.43 207 897.86 207 888 207C888 170.04 888 133.08 888 95Z" fill="#C62526"/>
<path d="M477 95C492.19 94.8763 492.19 94.8763 507.688 94.75C510.858 94.7136 514.029 94.6772 517.296 94.6397C519.847 94.628 522.398 94.6178 524.949 94.6094C526.89 94.5787 526.89 94.5787 528.87 94.5474C539.821 94.5432 550.778 96.0993 559.418 103.375C564.786 108.889 566.929 115.901 567.035 123.516C566.511 131.845 564.018 137.464 557.75 143C556.511 144.013 555.264 145.018 554 146C554.675 146.375 555.351 146.75 556.047 147.137C564.637 152.065 568.804 156.612 571.688 166.313C572.78 175.708 571.775 183.758 567.312 192.188C561.084 199.763 553.727 205.033 544 207C541.8 207.087 539.597 207.118 537.396 207.114C536.731 207.114 536.066 207.114 535.382 207.114C533.239 207.113 531.096 207.106 528.953 207.098C527.64 207.097 526.327 207.096 524.974 207.095C520.066 207.089 515.158 207.075 510.25 207.063C499.278 207.042 488.305 207.021 477 207C477 170.04 477 133.08 477 95ZM502 115C502 123.25 502 131.5 502 140C506.334 140.081 510.666 140.141 515 140.188C516.221 140.213 517.441 140.238 518.699 140.264C526.654 140.328 532.739 139.95 539.438 135.313C541.677 131.998 542.063 128.961 542 125C540.976 120.497 538.795 118.53 535 116C531.448 114.771 527.998 114.886 524.266 114.902C522.322 114.907 522.322 114.907 520.34 114.912C518.977 114.92 517.613 114.929 516.25 114.938C514.871 114.943 513.492 114.947 512.113 114.951C508.742 114.963 505.371 114.981 502 115ZM502 158C502 167.57 502 177.14 502 187C509.147 187.093 509.147 187.093 516.438 187.188C517.922 187.215 519.406 187.242 520.935 187.27C533.04 187.351 533.04 187.351 543.5 181.938C547.011 177.403 546.417 172.529 546 167C544.692 163.156 543.284 162.196 539.938 159.887C533.211 156.614 525.299 157.586 518 157.75C516.447 157.77 514.893 157.788 513.34 157.805C509.559 157.845 505.781 157.923 502 158Z" fill="#C62526"/>
<path d="M1472 95C1480.25 95 1488.5 95 1497 95C1497.5 131.63 1497.5 131.63 1498 169C1502.62 160.42 1507.24 151.84 1512 143C1518.62 131.312 1518.62 131.312 1521.81 125.727C1525.8 118.643 1529.53 111.425 1533.22 104.183C1533.69 103.27 1534.15 102.358 1534.64 101.418C1535.05 100.611 1535.46 99.8045 1535.88 98.9734C1537 97 1537 97 1539 95C1548.57 95 1558.14 95 1568 95C1568 131.96 1568 168.92 1568 207C1559.42 207 1550.84 207 1542 207C1541.67 182.91 1541.34 158.82 1541 134C1531.92 150.763 1531.92 150.763 1522.84 167.529C1520.23 172.354 1517.62 177.177 1515 182C1514.44 183.037 1513.88 184.074 1513.3 185.142C1511.64 188.2 1509.97 191.256 1508.31 194.312C1507.81 195.244 1507.3 196.176 1506.78 197.135C1506.31 197.994 1505.85 198.853 1505.36 199.738C1504.95 200.491 1504.54 201.245 1504.12 202.021C1503.16 203.725 1502.09 205.37 1501 207C1491.43 207 1481.86 207 1472 207C1472 170.04 1472 133.08 1472 95Z" fill="#C62526"/>
<path d="M1630.2 94.707C1632.1 94.7116 1632.1 94.7116 1634.04 94.7162C1638.73 94.7318 1643.43 94.7737 1648.12 94.8125C1663.9 94.9053 1663.9 94.9053 1680 95C1680 131.96 1680 168.92 1680 207C1671.75 207 1663.5 207 1655 207C1655 192.81 1655 178.62 1655 164C1650.05 164 1645.1 164 1640 164C1639.34 165.32 1638.68 166.64 1638 168C1637.11 169.313 1636.18 170.605 1635.23 171.879C1634.4 173.001 1634.4 173.001 1633.56 174.145C1632.96 174.943 1632.36 175.741 1631.75 176.562C1630.49 178.259 1629.23 179.956 1627.97 181.652C1627.32 182.527 1626.67 183.403 1626 184.304C1623.99 187.011 1621.99 189.725 1620 192.441C1619.36 193.31 1618.72 194.179 1618.06 195.074C1616.83 196.756 1615.59 198.437 1614.36 200.119C1613.8 200.877 1613.24 201.634 1612.67 202.414C1611.93 203.419 1611.93 203.419 1611.18 204.444C1610 206 1610 206 1609 207C1606.62 207.088 1604.28 207.115 1601.9 207.098C1600.84 207.096 1600.84 207.096 1599.75 207.093C1597.48 207.088 1595.21 207.075 1592.94 207.062C1591.4 207.057 1589.86 207.053 1588.33 207.049C1584.55 207.038 1580.78 207.021 1577 207C1578.73 203.392 1580.84 200.471 1583.31 197.312C1584.21 196.158 1585.11 195.003 1586.01 193.848C1586.49 193.23 1586.97 192.613 1587.47 191.977C1590.79 187.69 1594.07 183.367 1597.36 179.052C1600.83 174.512 1604.34 170.009 1607.93 165.566C1609.19 164.042 1609.19 164.042 1609 162C1608.36 161.709 1607.72 161.417 1607.06 161.117C1596.89 156.297 1591.24 151.623 1587 141C1584.05 132.19 1585.2 120.628 1588.82 112.262C1593.17 103.941 1600.54 99.4174 1609.24 96.4312C1616.15 94.4033 1623.05 94.6238 1630.2 94.707ZM1613.5 120C1610.16 124.456 1610.52 129.672 1611 135C1612.59 138.741 1614.47 140.994 1618 143C1625.59 145.542 1633.07 145.225 1641 145.125C1645.62 145.084 1650.24 145.043 1655 145C1655 135.1 1655 125.2 1655 115C1650.24 114.938 1645.47 114.876 1640.56 114.813C1639.08 114.785 1637.59 114.758 1636.06 114.73C1627.81 114.678 1620.17 114.666 1613.5 120Z" fill="#C62526"/>
<path d="M767 100C780.528 110.472 788.523 122.998 791 140C792.579 159.413 790.408 177.673 777.75 193.25C768.138 203.512 755.002 209.668 740.934 210.203C723.02 210.517 708.653 207.127 695.289 194.484C683.036 181.185 679.278 164.733 679.758 147.082C680.502 131.563 685.637 117.438 696.559 106.184C715.091 89.608 745.819 86.1775 767 100ZM713 124C705.383 135.527 704.628 149.013 706.465 162.383C708.422 171.44 712.71 178.973 720.02 184.781C726.892 189.011 734.628 189.955 742.437 188.566C749.948 186.723 755.376 183.16 759.535 176.566C766.258 163.69 767.655 147.196 763.437 133.187C760.009 124.869 755.209 119.033 747.211 114.875C734.323 109.774 721.875 113.832 713 124Z" fill="#C62526"/>
<path d="M1144 95C1152.58 95 1161.16 95 1170 95C1170 108.86 1170 122.72 1170 137C1184.52 137 1199.04 137 1214 137C1214 123.14 1214 109.28 1214 95C1222.58 95 1231.16 95 1240 95C1240 131.96 1240 168.92 1240 207C1231.42 207 1222.84 207 1214 207C1214 191.16 1214 175.32 1214 159C1199.48 159 1184.96 159 1170 159C1170 174.84 1170 190.68 1170 207C1161.42 207 1152.84 207 1144 207C1144 170.04 1144 133.08 1144 95Z" fill="#C62526"/>
<path d="M382 95C410.05 95 438.1 95 467 95C467 101.93 467 108.86 467 116C447.2 116 427.4 116 407 116C407 123.59 407 131.18 407 139C425.15 139 443.3 139 462 139C462 145.6 462 152.2 462 159C443.85 159 425.7 159 407 159C407 167.91 407 176.82 407 186C427.13 186 447.26 186 468 186C468 192.93 468 199.86 468 207C439.62 207 411.24 207 382 207C382 170.04 382 133.08 382 95Z" fill="#C62526"/>
<path d="M1291 95C1299.91 95 1308.82 95 1318 95C1323.48 108.588 1328.79 122.223 1333.94 135.938C1335.04 138.856 1336.14 141.775 1337.23 144.694C1337.99 146.705 1338.75 148.717 1339.51 150.728C1342.28 158.111 1345.08 165.486 1347.88 172.859C1349.06 175.964 1350.24 179.069 1351.42 182.174C1352.18 184.178 1352.94 186.183 1353.71 188.187C1354.77 190.971 1355.82 193.757 1356.88 196.543C1357.2 197.374 1357.51 198.205 1357.84 199.062C1360 204.772 1360 204.772 1360 207C1351.09 207 1342.18 207 1333 207C1331.68 203.411 1330.36 199.823 1329 196.125C1328.58 194.995 1328.16 193.864 1327.73 192.7C1327.41 191.811 1327.08 190.923 1326.75 190.008C1326.25 188.641 1326.25 188.641 1325.73 187.247C1325 185 1325 185 1325 183C1311.47 183.33 1297.94 183.66 1284 184C1281.41 191.194 1281.41 191.194 1278.82 198.39C1278.34 199.727 1278.34 199.727 1277.85 201.09C1277.52 202.006 1277.19 202.923 1276.85 203.867C1276 206 1276 206 1275 207C1273.07 207.087 1271.14 207.107 1269.21 207.098C1267.46 207.093 1267.46 207.093 1265.67 207.088C1263.82 207.075 1263.82 207.075 1261.94 207.062C1260.08 207.056 1260.08 207.056 1258.19 207.049C1255.13 207.037 1252.06 207.021 1249 207C1251.28 198.485 1254.47 190.349 1257.67 182.148C1259.34 177.852 1261 173.551 1262.66 169.25C1263.01 168.345 1263.36 167.441 1263.72 166.508C1268.59 153.903 1273.34 141.253 1278.1 128.606C1282.33 117.375 1286.63 106.177 1291 95ZM1304 125C1302.14 130.07 1300.29 135.142 1298.45 140.216C1297.82 141.942 1297.19 143.668 1296.55 145.393C1295.65 147.871 1294.74 150.351 1293.84 152.832C1293.42 153.99 1293.42 153.99 1292.98 155.171C1291.87 158.239 1291 160.712 1291 164C1299.91 164 1308.82 164 1318 164C1316.69 158.094 1315.47 153.114 1313.4 147.559C1313.16 146.905 1312.92 146.252 1312.67 145.579C1311.91 143.53 1311.14 141.484 1310.38 139.438C1309.85 138.033 1309.33 136.629 1308.81 135.225C1307.55 131.814 1306.28 128.406 1305 125C1304.67 125 1304.34 125 1304 125Z" fill="#C62526"/>
<path d="M1415.45 91.8398C1427.12 91.4479 1438.73 93.5736 1448 101C1455.15 107.824 1458.24 113.355 1458.96 123.219C1459.05 129.769 1457.12 134.853 1453 140C1447.85 145 1447.85 145 1445 145C1445 145.66 1445 146.32 1445 147C1445.74 147.102 1446.48 147.204 1447.25 147.309C1452.48 148.622 1456.43 152.631 1459.37 157.066C1463.65 165.309 1464.23 174.15 1461.88 183.125C1458.66 192.689 1451.06 200.388 1442.31 205.25C1427.91 211.762 1410.81 211.812 1395.9 207C1383.28 202.15 1376.18 195.356 1370.69 183.062C1369.65 178.456 1369.43 173.702 1369 169C1377.58 169 1386.16 169 1395 169C1395.66 171.97 1396.32 174.94 1397 178C1399.76 183.628 1403.33 185.839 1409 188C1415.09 189.826 1421.55 190.018 1427.38 187.312C1431.78 184.805 1434.39 181.838 1436 177C1436.42 172.726 1436.48 169.096 1434.75 165.125C1429.68 158.971 1423.46 158.495 1415.9 157.656C1413.27 157.412 1410.64 157.203 1408 157C1408 151.39 1408 145.78 1408 140C1409.98 139.897 1411.96 139.794 1414 139.687C1420.79 139.148 1426.31 138.55 1431.44 133.687C1433.97 129.337 1434.21 126.324 1433.44 121.375C1431.67 117.225 1429.96 116.058 1426 114C1420.08 111.708 1413.85 112.909 1408.08 115.031C1401.5 118.097 1400.55 122.196 1398 129C1390.08 129 1382.16 129 1374 129C1374 118.877 1375.82 111.203 1382.96 103.781C1392.34 95.5962 1403.26 92.6371 1415.45 91.8398Z" fill="#C62526"/>
<path d="M581 95C590.467 94.9175 599.934 94.835 609.688 94.75C614.13 94.6954 614.13 94.6954 618.663 94.6397C621.05 94.628 623.437 94.6178 625.824 94.6094C627.635 94.5787 627.635 94.5787 629.483 94.5474C641.359 94.5426 652.844 97.0278 662 105C669.408 112.408 671.114 121.239 671.438 131.438C671.198 141.25 669.104 150.053 662.117 157.25C653.385 164.468 643.702 167.355 632.562 167.195C631.883 167.193 631.203 167.191 630.502 167.189C628.001 167.179 625.501 167.151 623 167.125C617.39 167.084 611.78 167.043 606 167C606 180.2 606 193.4 606 207C597.75 207 589.5 207 581 207C581 170.04 581 133.08 581 95ZM606 116C606 126.23 606 136.46 606 147C610.29 147.062 614.58 147.124 619 147.188C621.005 147.228 621.005 147.228 623.051 147.27C629.759 147.317 634.964 147.029 641 144C645.69 139.19 646.351 134.995 646.285 128.508C645.761 123.901 643.327 121.203 640 118.188C635.961 115.79 632.112 115.881 627.484 115.902C625.794 115.906 625.794 115.906 624.069 115.91C622.644 115.919 621.219 115.928 619.75 115.938C615.213 115.958 610.675 115.979 606 116Z" fill="#C62526"/>
<path d="M800 95C826.07 95 852.14 95 879 95C879 102.26 879 109.52 879 117C861.51 117 844.02 117 826 117C826 146.7 826 176.4 826 207C817.42 207 808.84 207 800 207C800 170.04 800 133.08 800 95Z" fill="#C62526"/>
<path d="M166 6C167.964 7.78452 169.847 9.57209 171.713 11.4519C172.255 11.9901 172.797 12.5283 173.355 13.0828C175.158 14.8759 176.955 16.6759 178.751 18.4761C180.047 19.7678 181.343 21.0591 182.64 22.3501C186.153 25.8495 189.659 29.3553 193.164 32.8626C196.092 35.792 199.024 38.7183 201.955 41.6447C208.869 48.548 215.778 55.4567 222.684 62.3687C229.807 69.4972 236.938 76.6164 244.075 83.7313C250.205 89.844 256.329 95.9626 262.449 102.086C266.103 105.741 269.759 109.394 273.42 113.042C276.862 116.471 280.297 119.908 283.725 123.35C284.984 124.611 286.246 125.869 287.51 127.125C289.236 128.841 290.953 130.566 292.668 132.294C293.169 132.788 293.67 133.281 294.186 133.789C299.35 139.034 302 144.588 302 152C300.73 162.557 293.493 168.79 286.274 175.953C285.278 176.948 284.283 177.944 283.287 178.94C280.596 181.633 277.898 184.318 275.2 187.003C272.376 189.814 269.558 192.631 266.739 195.447C261.406 200.774 256.068 206.096 250.728 211.416C244.647 217.475 238.571 223.539 232.496 229.604C220.004 242.076 207.504 254.54 195 267C191.345 265.46 189.017 263.264 186.229 260.47C185.764 260.006 185.299 259.543 184.82 259.066C183.266 257.515 181.72 255.958 180.173 254.4C179.059 253.286 177.946 252.172 176.831 251.059C173.808 248.037 170.792 245.009 167.776 241.979C164.624 238.814 161.465 235.654 158.307 232.494C152.329 226.509 146.355 220.519 140.384 214.528C133.585 207.706 126.78 200.891 119.975 194.076C105.977 180.057 91.9862 166.031 78 152C79.8836 147.919 82.6085 145.051 85.7422 141.887C86.307 141.313 86.8717 140.739 87.4536 140.148C88.6462 138.941 89.8416 137.737 91.0396 136.535C92.874 134.689 94.6889 132.824 96.5039 130.959C97.6655 129.788 98.8282 128.618 99.9922 127.449C100.805 126.607 100.805 126.607 101.634 125.748C103.191 124.21 103.191 124.21 106 122C109.5 122.283 111.214 123.842 113.632 126.271C114.336 126.971 115.04 127.671 115.765 128.392C116.527 129.164 117.288 129.937 118.073 130.733C119.288 131.947 119.288 131.947 120.528 133.186C123.208 135.868 125.878 138.561 128.547 141.254C130.401 143.114 132.257 144.973 134.112 146.832C138.499 151.228 142.878 155.632 147.255 160.039C152.238 165.055 157.23 170.064 162.222 175.071C172.491 185.371 182.749 195.682 193 206C196.633 204.304 198.945 202.262 201.75 199.375C202.549 198.558 203.348 197.74 204.172 196.898C204.775 196.272 205.378 195.645 206 195C204.623 191.902 203.048 189.808 200.64 187.433C199.946 186.743 199.251 186.053 198.536 185.343C197.395 184.224 197.395 184.224 196.23 183.082C195.027 181.891 195.027 181.891 193.8 180.676C192.06 178.953 190.317 177.232 188.572 175.513C185.815 172.796 183.065 170.071 180.318 167.343C172.506 159.589 164.685 151.845 156.849 144.116C152.057 139.389 147.278 134.65 142.506 129.903C140.682 128.093 138.853 126.287 137.019 124.487C134.462 121.975 131.921 119.449 129.382 116.918C128.615 116.172 127.848 115.426 127.057 114.657C126.371 113.967 125.686 113.278 124.979 112.567C124.376 111.971 123.773 111.376 123.152 110.762C122 109 122 109 122.161 106.956C123.568 103.674 126.156 101.376 128.645 98.8867C129.211 98.3129 129.777 97.7391 130.36 97.1479C131.558 95.9397 132.759 94.7355 133.964 93.5349C135.809 91.6905 137.632 89.8258 139.455 87.959C140.621 86.7878 141.788 85.6178 142.957 84.4492C143.502 83.8879 144.047 83.3266 144.608 82.7482C146.175 81.2097 146.175 81.2097 149 79C152.5 79.2827 154.214 80.8421 156.632 83.2713C157.336 83.971 158.04 84.6708 158.765 85.3917C159.527 86.1642 160.288 86.9367 161.073 87.7327C162.288 88.9472 162.288 88.9472 163.528 90.1863C166.208 92.8684 168.878 95.5611 171.547 98.2539C173.401 100.114 175.257 101.973 177.112 103.832C181.499 108.228 185.878 112.632 190.255 117.039C195.238 122.055 200.23 127.064 205.222 132.071C215.491 142.371 225.749 152.682 236 163C239.633 161.304 241.945 159.262 244.75 156.375C245.549 155.558 246.348 154.74 247.172 153.898C247.775 153.272 248.378 152.645 249 152C247.414 148.139 244.952 145.719 242.007 142.8C241.494 142.289 240.982 141.778 240.453 141.252C238.734 139.541 237.008 137.838 235.282 136.135C234.049 134.91 232.815 133.684 231.582 132.458C228.927 129.819 226.269 127.183 223.608 124.55C219.405 120.388 215.212 116.217 211.02 112.045C199.098 100.181 187.167 88.3269 175.22 76.4878C168.622 69.9487 162.033 63.4007 155.454 56.8428C151.285 52.6891 147.106 48.5467 142.919 44.4122C140.321 41.8425 137.734 39.2625 135.15 36.6794C133.947 35.4802 132.738 34.2852 131.526 33.0949C129.876 31.4744 128.242 29.8393 126.612 28.1996C125.692 27.2867 124.772 26.3738 123.824 25.4332C122 23 122 23 122.125 20.7865C123.196 18.6006 124.45 17.161 126.168 15.4336C126.814 14.7833 127.461 14.1329 128.127 13.4629C128.807 12.7945 129.487 12.1261 130.188 11.4375C131.178 10.4291 131.178 10.4291 132.189 9.40039C142.575 -0.923982 153.886 -2.66548 166 6Z" fill="#B6965F"/>
<path d="M65.1796 79.0165C68.3881 80.7499 70.7773 83.4159 73.2968 86.0039C73.8905 86.6018 74.4841 87.1996 75.0957 87.8156C76.9876 89.7243 78.8688 91.6432 80.75 93.5625C82.0318 94.8594 83.3144 96.1556 84.5976 97.4511C87.7397 100.626 90.8723 103.811 94 107C92.5413 110.36 90.6913 112.552 88.101 115.126C87.3003 115.926 86.4997 116.727 85.6747 117.552C84.3778 118.833 84.3778 118.833 83.0546 120.141C82.1696 121.023 81.2846 121.905 80.3728 122.814C78.0255 125.152 75.6739 127.486 73.3201 129.817C70.9168 132.2 68.5192 134.588 66.121 136.977C61.4192 141.656 56.7118 146.33 52 151C56.4106 156.279 61.0583 161.196 65.9331 166.047C67.0902 167.204 67.0902 167.204 68.2707 168.385C70.8005 170.914 73.3338 173.439 75.8671 175.965C77.63 177.726 79.3926 179.487 81.155 181.248C85.7789 185.868 90.4058 190.486 95.0333 195.102C99.7613 199.819 104.486 204.54 109.211 209.26C118.471 218.509 127.734 227.756 137 237C135.107 241.124 132.322 243.933 129.117 247.078C128.543 247.65 127.969 248.221 127.377 248.81C125.548 250.628 123.711 252.439 121.875 254.25C120.631 255.484 119.388 256.718 118.144 257.953C115.102 260.974 112.052 263.989 109 267C105.574 265.52 103.339 263.592 100.705 260.965C99.8538 260.122 99.0028 259.278 98.126 258.408C97.2007 257.48 96.2753 256.553 95.322 255.597C94.3316 254.611 93.3408 253.625 92.3496 252.64C89.6611 249.965 86.9789 247.283 84.2983 244.6C82.0586 242.359 79.8159 240.121 77.5733 237.883C72.2813 232.603 66.9946 227.316 61.7111 222.027C56.2644 216.574 50.8086 211.131 45.3482 205.691C40.6573 201.018 35.9723 196.339 31.2919 191.655C28.4978 188.86 25.7016 186.066 22.8997 183.278C20.2639 180.655 17.6356 178.025 15.0127 175.389C13.5929 173.965 12.1657 172.549 10.7384 171.134C9.8902 170.279 9.04203 169.424 8.16815 168.542C7.43131 167.806 6.69446 167.069 5.93528 166.31C1.26436 160.735 -0.15454 155.109 -4.39966e-05 148C1.88495 137.745 10.0862 131.059 17.1562 124.082C18.4647 122.772 19.7721 121.461 21.0787 120.149C23.8062 117.418 26.5438 114.697 29.2895 111.983C32.8125 108.5 36.3101 104.993 39.8007 101.478C42.4904 98.7739 45.192 96.0823 47.8975 93.3944C49.1928 92.105 50.4846 90.8119 51.7727 89.5152C53.5677 87.7122 55.3779 85.9261 57.1933 84.1438C57.7243 83.6042 58.2554 83.0646 58.8025 82.5087C62.4291 78.9956 62.4291 78.9956 65.1796 79.0165Z" fill="#C52526"/>
<path d="M162.18 262.668C167.209 266.348 170.74 270.824 172 277C172.642 283.532 171.514 288.409 168 294C164.079 298.551 160.01 301.083 154 302C146.654 302.083 140.994 300.771 135.531 295.613C130.859 290.439 129.497 285.102 129.691 278.301C130.576 271.704 134.14 267.185 139.289 263.188C146.207 258.386 154.934 258.517 162.18 262.668Z" fill="#C62526"/>
<path d="M116.383 44.9101C121.986 48.2233 126.48 52.504 128.375 58.875C129.69 65.438 128.558 71.2823 125 77C120.935 81.7239 117.312 84.6065 111.008 85.3554C103.658 85.6695 98.5488 85.0008 93 80C87.7398 74.463 86.5268 69.2466 86.6875 61.7851C87.3248 56.1049 89.6865 51.9036 93.9375 48.125C100.578 43.5169 108.63 41.9488 116.383 44.9101Z" fill="#C62526"/>
</g>
<defs>
<clipPath id="clip0_5157_54">
<rect width="1680" height="302" fill="white"/>
</clipPath>
</defs>
</svg>

